<?xml version="1.0" encoding="UTF-8" standalone="no"?>
<!-- Created with Inkscape (http://www.inkscape.org/) -->

<svg
   xmlns:dc="http://purl.org/dc/elements/1.1/"
   xmlns:cc="http://creativecommons.org/ns#"
   xmlns:rdf="http://www.w3.org/1999/02/22-rdf-syntax-ns#"
   xmlns:svg="http://www.w3.org/2000/svg"
   xmlns="http://www.w3.org/2000/svg"
   xmlns:sodipodi="http://sodipodi.sourceforge.net/DTD/sodipodi-0.dtd"
   xmlns:inkscape="http://www.inkscape.org/namespaces/inkscape"
   version="1.1"
   id="svg2"
   xml:space="preserve"
   width="302.36267"
   height="302.36267"
   viewBox="0 0 302.36267 302.36267"
   sodipodi:docname="biodiversidata-perfil-final.svg"
   inkscape:version="0.92.2 (5c3e80d, 2017-08-06)"><metadata
     id="metadata8"><rdf:RDF><cc:Work
         rdf:about=""><dc:format>image/svg+xml</dc:format><dc:type
           rdf:resource="http://purl.org/dc/dcmitype/StillImage" /><dc:title></dc:title></cc:Work></rdf:RDF></metadata><defs
     id="defs6"><clipPath
       clipPathUnits="userSpaceOnUse"
       id="clipPath18"><path
         d="M 0,226.772 H 226.772 V 0 H 0 Z"
         id="path16"
         inkscape:connector-curvature="0" /></clipPath></defs><sodipodi:namedview
     pagecolor="#ffffff"
     bordercolor="#666666"
     borderopacity="1"
     objecttolerance="10"
     gridtolerance="10"
     guidetolerance="10"
     inkscape:pageopacity="0"
     inkscape:pageshadow="2"
     inkscape:window-width="1920"
     inkscape:window-height="1017"
     id="namedview4"
     showgrid="false"
     inkscape:zoom="0.78051963"
     inkscape:cx="151.18134"
     inkscape:cy="151.18134"
     inkscape:window-x="-8"
     inkscape:window-y="-8"
     inkscape:window-maximized="1"
     inkscape:current-layer="g10" /><g
     id="g10"
     inkscape:groupmode="layer"
     inkscape:label="biodiversidata-perfil-final"
     transform="matrix(1.3333333,0,0,-1.3333333,0,302.36267)"><g
       id="g12"><g
         id="g14"
         clip-path="url(#clipPath18)"><g
           id="g20"
           transform="translate(66.4268,111.6231)"><path
             d="m 0,0 h 3.03 c 2.1,0 3.15,0.93 3.15,2.746 v 10.502 c 0,1.818 -1.05,2.747 -3.15,2.747 l -3.03,0 z m -6.1,-5.493 v 26.981 h 9.169 c 2.708,0 4.929,-0.766 6.665,-2.26 1.697,-1.537 2.544,-3.515 2.544,-5.98 V 2.746 C 12.278,0.282 11.431,-1.696 9.734,-3.19 7.998,-4.726 5.777,-5.493 3.069,-5.493 Z"
             style="fill:#54b5a3;fill-opacity:1;fill-rule:nonzero;stroke:none"
             id="path22"
             inkscape:connector-curvature="0" /></g><path
           d="m 89.774,106.13 h -6.14 v 26.981 h 6.14 z"
           style="fill:#54b5a3;fill-opacity:1;fill-rule:nonzero;stroke:none"
           id="path24"
           inkscape:connector-curvature="0" /><g
           id="g26"
           transform="translate(93.1261,133.1114)"><path
             d="m 0,0 h 6.301 l 2.546,-14.461 c 0.564,-3.149 0.968,-6.421 1.251,-9.815 0.202,2.869 0.647,6.14 1.293,9.815 L 13.936,0 h 6.301 L 14.986,-26.981 H 5.291 Z"
             style="fill:#54b5a3;fill-opacity:1;fill-rule:nonzero;stroke:none"
             id="path28"
             inkscape:connector-curvature="0" /></g><g
           id="g30"
           transform="translate(131.9835,106.13)"><path
             d="M 0,0 H -15.391 V 26.981 H 0 v -5.493 h -9.29 v -5.171 h 8.321 V 10.824 H -9.29 V 5.493 H 0 Z"
             style="fill:#54b5a3;fill-opacity:1;fill-rule:nonzero;stroke:none"
             id="path32"
             inkscape:connector-curvature="0" /></g><g
           id="g34"
           transform="translate(141.0323,127.6593)"><path
             d="m 0,0 v -7.149 h 2.705 c 2.061,0 3.071,0.928 3.071,2.827 v 1.656 C 5.776,-0.687 4.807,0 2.585,0 Z M 6.018,-21.529 2.06,-12.604 H 0 v -8.925 H -6.101 V 5.452 h 8.847 c 5.978,0 9.129,-2.867 9.129,-8.199 v -1.494 c 0,-3.636 -1.333,-5.939 -3.999,-6.948 l 5.09,-10.34 z"
             style="fill:#54b5a3;fill-opacity:1;fill-rule:nonzero;stroke:none"
             id="path36"
             inkscape:connector-curvature="0" /></g><g
           id="g38"
           transform="translate(158.7237,131.1329)"><path
             d="m 0,0 c 1.655,1.453 3.717,2.181 6.261,2.181 2.747,0 5.009,-0.728 6.746,-2.181 1.735,-1.455 2.584,-3.554 2.584,-6.262 V -7.109 H 9.492 v 0.929 c 0,1.939 -1.051,2.909 -3.191,2.949 -1.737,0 -2.584,-0.809 -2.584,-2.101 0,-2.303 4.322,-3.393 7.754,-5.129 2.383,-1.212 4.242,-3.556 4.242,-6.625 0,-4.848 -3.395,-8.119 -9.09,-8.119 -2.786,0 -5.089,0.768 -6.866,2.303 -1.777,1.534 -2.665,3.634 -2.665,6.259 v 1.132 H 3.15 v -1.051 c 0,-1.938 1.251,-3.19 3.555,-3.19 1.816,0 2.828,0.929 2.828,2.384 0,2.1 -2.99,2.665 -6.018,4.119 -3.031,1.292 -6.019,3.312 -6.019,7.674 0,2.262 0.848,4.12 2.504,5.575"
             style="fill:#54b5a3;fill-opacity:1;fill-rule:nonzero;stroke:none"
             id="path40"
             inkscape:connector-curvature="0" /></g><path
           d="m 184.615,106.13 h -6.139 v 26.981 h 6.139 z"
           style="fill:#54b5a3;fill-opacity:1;fill-rule:nonzero;stroke:none"
           id="path42"
           inkscape:connector-curvature="0" /><g
           id="g44"
           transform="translate(69.7384,159.9845)"><path
             d="M 0,0 C 2.303,0 3.435,1.01 3.435,2.463 V 3.07 c 0,1.817 -0.969,2.544 -3.273,2.544 h -3.474 l 0,-5.614 z m -0.483,10.905 c 2.423,0 3.069,1.01 3.069,2.667 v 0.525 c 0,1.172 -0.889,2.06 -2.828,2.06 h -3.07 V 10.905 Z M 9.453,2.786 V 1.938 c 0,-4.523 -3.272,-7.351 -8.968,-7.351 h -9.896 v 26.981 h 9.573 c 5.533,0 8.442,-2.585 8.442,-6.623 V 14.259 C 8.604,10.946 7.231,9.048 4.484,8.522 7.796,8.24 9.453,6.342 9.453,2.786"
             style="fill:#54b5a3;fill-opacity:1;fill-rule:nonzero;stroke:none"
             id="path46"
             inkscape:connector-curvature="0" /></g><path
           d="m 89.127,154.571 h -6.139 v 26.981 h 6.139 z"
           style="fill:#54b5a3;fill-opacity:1;fill-rule:nonzero;stroke:none"
           id="path48"
           inkscape:connector-curvature="0" /><g
           id="g50"
           transform="translate(100.1544,163.0548)"><path
             d="m 0,0 c 0,-1.898 1.173,-3.07 3.11,-3.07 1.94,0 3.111,1.172 3.111,3.07 v 10.018 c 0,1.898 -1.171,3.069 -3.111,3.069 C 1.173,13.087 0,11.916 0,10.018 Z m -6.099,10.018 c 0,2.665 0.849,4.765 2.584,6.34 1.739,1.576 3.919,2.343 6.625,2.343 2.707,0 4.888,-0.767 6.625,-2.343 1.736,-1.575 2.584,-3.675 2.584,-6.34 L 12.319,0 c 0,-2.667 -0.848,-4.768 -2.584,-6.342 -1.737,-1.575 -3.918,-2.344 -6.625,-2.344 -2.706,0 -4.886,0.769 -6.625,2.344 C -5.25,-4.768 -6.099,-2.667 -6.099,0 Z"
             style="fill:#54b5a3;fill-opacity:1;fill-rule:nonzero;stroke:none"
             id="path52"
             inkscape:connector-curvature="0" /></g><g
           id="g54"
           transform="translate(66.4268,63.1798)"><path
             d="m 0,0 h 3.03 c 2.1,0 3.15,0.93 3.15,2.746 v 10.502 c 0,1.818 -1.05,2.747 -3.15,2.747 l -3.03,0 z m -6.1,-5.493 v 26.981 h 9.169 c 2.708,0 4.929,-0.766 6.665,-2.26 1.697,-1.537 2.544,-3.515 2.544,-5.98 V 2.746 C 12.278,0.282 11.431,-1.696 9.734,-3.19 7.998,-4.726 5.777,-5.493 3.069,-5.493 Z"
             style="fill:#54b5a3;fill-opacity:1;fill-rule:nonzero;stroke:none"
             id="path56"
             inkscape:connector-curvature="0" /></g><g
           id="g58"
           transform="translate(88.6837,68.2696)"><path
             d="M 0,0 H 4.24 L 4.12,0.687 C 2.867,6.583 2.222,10.784 2.101,13.249 1.898,10.139 1.252,5.978 0.16,0.726 Z m -2.222,-10.583 h -6.341 l 6.058,26.981 h 9.25 l 6.059,-26.981 H 6.462 l -1.051,5.089 h -6.582 z"
             style="fill:#54b5a3;fill-opacity:1;fill-rule:nonzero;stroke:none"
             id="path60"
             inkscape:connector-curvature="0" /></g><g
           id="g62"
           transform="translate(118.2892,79.1749)"><path
             d="m 0,0 h -5.775 v -21.488 h -6.098 V 0 h -5.736 V 5.493 H 0 Z"
             style="fill:#54b5a3;fill-opacity:1;fill-rule:nonzero;stroke:none"
             id="path64"
             inkscape:connector-curvature="0" /></g><g
           id="g66"
           transform="translate(125.4395,68.2696)"><path
             d="M 0,0 H 4.242 L 4.12,0.687 C 2.869,6.583 2.222,10.784 2.101,13.249 1.898,10.139 1.253,5.978 0.163,0.726 Z m -2.222,-10.583 h -6.341 l 6.059,26.981 h 9.25 l 6.061,-26.981 H 6.464 l -1.051,5.089 h -6.584 z"
             style="fill:#54b5a3;fill-opacity:1;fill-rule:nonzero;stroke:none"
             id="path68"
             inkscape:connector-curvature="0" /></g><g
           id="g70"
           transform="translate(64.6524,96.0128)"><path
             d="m 0,0 c 0,0.979 -0.672,1.666 -1.669,1.666 h -0.937 v -3.333 h 0.937 c 0.997,0 1.669,0.671 1.669,1.651 z m -1.669,-2.766 h -2.155 v 5.531 h 2.155 c 1.738,0 2.94,-1.194 2.94,-2.75 V 0 c 0,-1.557 -1.202,-2.766 -2.94,-2.766"
             style="fill:#55477e;fill-opacity:1;fill-rule:nonzero;stroke:none"
             id="path72"
             inkscape:connector-curvature="0" /></g><g
           id="g74"
           transform="translate(67.2472,93.2472)"><path
             d="M 0,0 V 5.53 H 4.17 V 4.447 H 1.207 V 3.325 H 3.815 V 2.244 H 1.207 V 1.083 H 4.21 V 0 Z"
             style="fill:#55477e;fill-opacity:1;fill-rule:nonzero;stroke:none"
             id="path76"
             inkscape:connector-curvature="0" /></g><g
           id="g78"
           transform="translate(78.8849,94.9298)"><path
             d="m 0,0 c 0,0.371 -0.275,0.601 -0.9,0.601 h -1.406 v -1.217 h 1.446 c 0.537,0 0.86,0.189 0.86,0.6 z m -0.308,2.212 c 0,0.363 -0.285,0.568 -0.798,0.568 h -1.2 V 1.612 h 1.121 c 0.538,0 0.877,0.173 0.877,0.584 z M -0.86,-1.683 h -2.631 v 5.531 h 2.567 c 1.129,0 1.825,-0.562 1.825,-1.431 V 2.401 C 0.901,1.777 0.57,1.43 0.174,1.209 0.814,0.963 1.209,0.593 1.209,-0.15 v -0.016 c 0,-1.011 -0.821,-1.517 -2.069,-1.517"
             style="fill:#55477e;fill-opacity:1;fill-rule:nonzero;stroke:none"
             id="path80"
             inkscape:connector-curvature="0" /></g><path
           d="m 81.393,98.777 h 1.216 v -5.53 h -1.216 z"
           style="fill:#55477e;fill-opacity:1;fill-rule:nonzero;stroke:none"
           id="path82"
           inkscape:connector-curvature="0" /><g
           id="g84"
           transform="translate(88.5968,96.0128)"><path
             d="m 0,0 c 0,0.947 -0.697,1.736 -1.676,1.736 -0.978,0 -1.658,-0.773 -1.658,-1.721 V 0 c 0,-0.948 0.693,-1.739 1.674,-1.739 0.98,0 1.66,0.774 1.66,1.723 z m -1.676,-2.86 c -1.706,0 -2.93,1.271 -2.93,2.844 V 0 c 0,1.571 1.241,2.858 2.946,2.858 1.707,0 2.931,-1.272 2.931,-2.843 L 1.271,0 c 0,-1.573 -1.241,-2.86 -2.947,-2.86"
             style="fill:#55477e;fill-opacity:1;fill-rule:nonzero;stroke:none"
             id="path86"
             inkscape:connector-curvature="0" /></g><g
           id="g88"
           transform="translate(95.0138,96.0128)"><path
             d="m 0,0 c 0,0.979 -0.672,1.666 -1.666,1.666 h -0.94 v -3.333 h 0.94 c 0.994,0 1.666,0.671 1.666,1.651 z m -1.666,-2.766 h -2.156 v 5.531 h 2.156 c 1.737,0 2.938,-1.194 2.938,-2.75 L 1.272,0 c 0,-1.557 -1.201,-2.766 -2.938,-2.766"
             style="fill:#55477e;fill-opacity:1;fill-rule:nonzero;stroke:none"
             id="path90"
             inkscape:connector-curvature="0" /></g><path
           d="m 97.665,98.777 h 1.216 v -5.53 h -1.216 z"
           style="fill:#55477e;fill-opacity:1;fill-rule:nonzero;stroke:none"
           id="path92"
           inkscape:connector-curvature="0" /><g
           id="g94"
           transform="translate(103.3429,93.2081)"><path
             d="m 0,0 h -1.075 l -2.236,5.569 h 1.342 l 1.448,-3.895 1.446,3.895 h 1.311 z"
             style="fill:#55477e;fill-opacity:1;fill-rule:nonzero;stroke:none"
             id="path96"
             inkscape:connector-curvature="0" /></g><g
           id="g98"
           transform="translate(106.671,93.2472)"><path
             d="M 0,0 V 5.53 H 4.171 V 4.447 H 1.209 V 3.325 H 3.816 V 2.244 H 1.209 V 1.083 H 4.21 V 0 Z"
             style="fill:#55477e;fill-opacity:1;fill-rule:nonzero;stroke:none"
             id="path100"
             inkscape:connector-curvature="0" /></g><g
           id="g102"
           transform="translate(115.588,96.8888)"><path
             d="m 0,0 c 0,0.521 -0.365,0.79 -0.956,0.79 h -1.209 v -1.588 h 1.232 C -0.34,-0.798 0,-0.481 0,-0.016 Z m -0.025,-3.642 -1.184,1.77 h -0.956 v -1.77 h -1.217 v 5.531 h 2.528 C 0.449,1.889 1.231,1.2 1.231,0.063 V 0.048 c 0,-0.894 -0.481,-1.453 -1.183,-1.715 l 1.349,-1.975 z"
             style="fill:#55477e;fill-opacity:1;fill-rule:nonzero;stroke:none"
             id="path104"
             inkscape:connector-curvature="0" /></g><g
           id="g106"
           transform="translate(120.1261,93.169)"><path
             d="m 0,0 c -0.837,0 -1.682,0.292 -2.347,0.885 l 0.72,0.86 c 0.498,-0.411 1.018,-0.671 1.649,-0.671 0.499,0 0.798,0.197 0.798,0.521 V 1.61 c 0,0.309 -0.188,0.467 -1.112,0.704 -1.115,0.284 -1.834,0.592 -1.834,1.691 v 0.016 c 0,1.001 0.807,1.666 1.936,1.666 0.805,0 1.494,-0.252 2.053,-0.704 L 1.231,4.067 c -0.49,0.339 -0.969,0.545 -1.436,0.545 -0.466,0 -0.712,-0.213 -0.712,-0.481 V 4.114 C -0.917,3.752 -0.68,3.633 0.275,3.389 1.398,3.096 2.03,2.693 2.03,1.729 V 1.713 C 2.03,0.615 1.192,0 0,0"
             style="fill:#55477e;fill-opacity:1;fill-rule:nonzero;stroke:none"
             id="path108"
             inkscape:connector-curvature="0" /></g><path
           d="m 123.513,98.777 h 1.217 v -5.53 h -1.217 z"
           style="fill:#55477e;fill-opacity:1;fill-rule:nonzero;stroke:none"
           id="path110"
           inkscape:connector-curvature="0" /><g
           id="g112"
           transform="translate(130.1778,96.0128)"><path
             d="m 0,0 c 0,0.979 -0.672,1.666 -1.667,1.666 h -0.939 v -3.333 h 0.939 c 0.995,0 1.667,0.671 1.667,1.651 z m -1.667,-2.766 h -2.155 v 5.531 h 2.155 c 1.737,0 2.938,-1.194 2.938,-2.75 V 0 c 0,-1.557 -1.201,-2.766 -2.938,-2.766"
             style="fill:#55477e;fill-opacity:1;fill-rule:nonzero;stroke:none"
             id="path114"
             inkscape:connector-curvature="0" /></g><g
           id="g116"
           transform="translate(134.8185,97.3546)"><path
             d="m 0,0 -0.734,-1.793 h 1.468 z m 1.675,-4.107 -0.505,1.24 h -2.34 l -0.506,-1.24 h -1.238 l 2.369,5.569 h 1.122 l 2.37,-5.569 z"
             style="fill:#55477e;fill-opacity:1;fill-rule:nonzero;stroke:none"
             id="path118"
             inkscape:connector-curvature="0" /></g><g
           id="g120"
           transform="translate(142.6837,96.0128)"><path
             d="m 0,0 c 0,0.979 -0.672,1.666 -1.669,1.666 h -0.937 v -3.333 h 0.937 c 0.997,0 1.669,0.671 1.669,1.651 z m -1.669,-2.766 h -2.155 v 5.531 h 2.155 c 1.738,0 2.94,-1.194 2.94,-2.75 V 0 c 0,-1.557 -1.202,-2.766 -2.94,-2.766"
             style="fill:#55477e;fill-opacity:1;fill-rule:nonzero;stroke:none"
             id="path122"
             inkscape:connector-curvature="0" /></g><g
           id="g124"
           transform="translate(64.6524,47.8761)"><path
             d="m 0,0 c 0,0.979 -0.672,1.667 -1.669,1.667 h -0.937 v -3.333 h 0.937 c 0.997,0 1.669,0.671 1.669,1.651 z m -1.669,-2.765 h -2.155 v 5.531 h 2.155 c 1.738,0 2.94,-1.195 2.94,-2.75 V 0 c 0,-1.556 -1.202,-2.765 -2.94,-2.765"
             style="fill:#55477e;fill-opacity:1;fill-rule:nonzero;stroke:none"
             id="path126"
             inkscape:connector-curvature="0" /></g><g
           id="g128"
           transform="translate(67.2472,45.1114)"><path
             d="M 0,0 V 5.53 H 4.17 V 4.447 H 1.207 V 3.325 H 3.815 V 2.244 H 1.207 V 1.083 H 4.21 V 0 Z"
             style="fill:#55477e;fill-opacity:1;fill-rule:nonzero;stroke:none"
             id="path130"
             inkscape:connector-curvature="0" /></g><g
           id="g132"
           transform="translate(72.7813,45.1114)"><path
             d="M 0,0 V 5.53 H 1.217 V 1.106 H 3.972 V 0 Z"
             style="fill:#55477e;fill-opacity:1;fill-rule:nonzero;stroke:none"
             id="path134"
             inkscape:connector-curvature="0" /></g><g
           id="g136"
           transform="translate(82.8311,45.0245)"><path
             d="m 0,0 c -1.484,0 -2.394,0.83 -2.394,2.457 v 3.16 h 1.217 V 2.488 c 0,-0.9 0.45,-1.366 1.194,-1.366 0.741,0 1.192,0.451 1.192,1.327 V 5.617 H 2.426 V 2.497 C 2.426,0.821 1.485,0 0,0"
             style="fill:#55477e;fill-opacity:1;fill-rule:nonzero;stroke:none"
             id="path138"
             inkscape:connector-curvature="0" /></g><g
           id="g140"
           transform="translate(90.1183,48.753)"><path
             d="m 0,0 c 0,0.521 -0.362,0.79 -0.954,0.79 h -1.208 v -1.588 h 1.23 C -0.34,-0.798 0,-0.481 0,-0.016 Z m -0.022,-3.642 -1.185,1.77 h -0.955 v -1.77 H -3.38 v 5.531 h 2.527 C 0.451,1.889 1.233,1.2 1.233,0.062 V 0.048 c 0,-0.894 -0.481,-1.454 -1.185,-1.715 l 1.35,-1.975 z"
             style="fill:#55477e;fill-opacity:1;fill-rule:nonzero;stroke:none"
             id="path142"
             inkscape:connector-curvature="0" /></g><g
           id="g144"
           transform="translate(94.9981,45.0245)"><path
             d="m 0,0 c -1.484,0 -2.395,0.83 -2.395,2.457 v 3.16 h 1.218 V 2.488 c 0,-0.9 0.451,-1.366 1.193,-1.366 0.742,0 1.193,0.451 1.193,1.327 V 5.617 H 2.425 V 2.497 C 2.425,0.821 1.484,0 0,0"
             style="fill:#55477e;fill-opacity:1;fill-rule:nonzero;stroke:none"
             id="path146"
             inkscape:connector-curvature="0" /></g><g
           id="g148"
           transform="translate(101.5655,45.0157)"><path
             d="M 0,0 C -1.722,0 -2.906,1.209 -2.906,2.846 V 2.86 c 0,1.572 1.223,2.86 2.899,2.86 0.995,0 1.597,-0.269 2.172,-0.758 L 1.398,4.037 C 0.972,4.393 0.593,4.598 -0.046,4.598 -0.931,4.598 -1.635,3.815 -1.635,2.876 V 2.86 c 0,-1.01 0.698,-1.753 1.674,-1.753 0.444,0 0.839,0.111 1.147,0.331 v 0.791 h -1.225 v 1.05 H 2.362 V 0.878 C 1.795,0.396 1.011,0 0,0"
             style="fill:#55477e;fill-opacity:1;fill-rule:nonzero;stroke:none"
             id="path150"
             inkscape:connector-curvature="0" /></g><g
           id="g152"
           transform="translate(107.6456,45.0245)"><path
             d="m 0,0 c -1.485,0 -2.393,0.83 -2.393,2.457 v 3.16 h 1.216 V 2.488 c 0,-0.9 0.449,-1.366 1.194,-1.366 0.742,0 1.191,0.451 1.191,1.327 V 5.617 H 2.425 V 2.497 C 2.425,0.821 1.485,0 0,0"
             style="fill:#55477e;fill-opacity:1;fill-rule:nonzero;stroke:none"
             id="path154"
             inkscape:connector-curvature="0" /></g><g
           id="g156"
           transform="translate(113.796,49.2188)"><path
             d="m 0,0 -0.735,-1.793 h 1.468 z m 1.674,-4.107 -0.506,1.24 H -1.17 l -0.505,-1.24 h -1.24 l 2.37,5.569 h 1.121 l 2.37,-5.569 z"
             style="fill:#55477e;fill-opacity:1;fill-rule:nonzero;stroke:none"
             id="path158"
             inkscape:connector-curvature="0" /></g><g
           id="g160"
           transform="translate(119.7413,47.3145)"><path
             d="m 0,0 v -2.203 h -1.217 v 2.18 l -2.125,3.35 h 1.421 l 1.32,-2.221 1.342,2.221 h 1.382 z"
             style="fill:#55477e;fill-opacity:1;fill-rule:nonzero;stroke:none"
             id="path162"
             inkscape:connector-curvature="0" /></g><g
           id="g164"
           transform="translate(63.419,141.7481)"><path
             d="M 0,0 C -1.626,0 -2.836,1.257 -2.836,2.846 V 2.86 c 0,1.572 1.185,2.86 2.884,2.86 1.042,0 1.665,-0.347 2.18,-0.853 L 1.453,3.975 C 1.028,4.361 0.593,4.598 0.039,4.598 -0.893,4.598 -1.564,3.824 -1.564,2.876 V 2.86 c 0,-0.947 0.656,-1.738 1.603,-1.738 0.632,0 1.02,0.253 1.454,0.648 L 2.267,0.989 C 1.699,0.38 1.067,0 0,0"
             style="fill:#55477e;fill-opacity:1;fill-rule:nonzero;stroke:none"
             id="path166"
             inkscape:connector-curvature="0" /></g><g
           id="g168"
           transform="translate(71.1017,144.6085)"><path
             d="m 0,0 c 0,0.948 -0.695,1.737 -1.676,1.737 -0.978,0 -1.656,-0.773 -1.656,-1.721 V 0 c 0,-0.947 0.693,-1.738 1.674,-1.738 0.979,0 1.658,0.774 1.658,1.723 z m -1.676,-2.86 c -1.704,0 -2.928,1.272 -2.928,2.845 V 0 c 0,1.571 1.238,2.859 2.946,2.859 1.704,0 2.929,-1.272 2.929,-2.843 V 0 c 0,-1.572 -1.239,-2.86 -2.947,-2.86"
             style="fill:#55477e;fill-opacity:1;fill-rule:nonzero;stroke:none"
             id="path170"
             inkscape:connector-curvature="0" /></g><g
           id="g172"
           transform="translate(77.5753,141.8438)"><path
             d="M 0,0 -2.679,3.515 V 0 h -1.2 v 5.53 h 1.122 L -0.168,2.125 V 5.53 h 1.202 l 0,-5.53 z"
             style="fill:#55477e;fill-opacity:1;fill-rule:nonzero;stroke:none"
             id="path174"
             inkscape:connector-curvature="0" /></g><g
           id="g176"
           transform="translate(82.1456,141.7657)"><path
             d="m 0,0 c -0.837,0 -1.683,0.292 -2.347,0.885 l 0.719,0.86 c 0.499,-0.411 1.019,-0.671 1.65,-0.671 0.499,0 0.798,0.197 0.798,0.521 V 1.61 c 0,0.309 -0.188,0.466 -1.112,0.703 -1.115,0.285 -1.834,0.593 -1.834,1.692 V 4.02 c 0,1.002 0.806,1.667 1.935,1.667 0.806,0 1.494,-0.253 2.054,-0.704 L 1.231,4.067 c -0.49,0.339 -0.97,0.545 -1.436,0.545 -0.466,0 -0.712,-0.213 -0.712,-0.481 V 4.114 C -0.917,3.752 -0.68,3.632 0.275,3.388 1.398,3.096 2.03,2.693 2.03,1.729 V 1.713 C 2.03,0.614 1.192,0 0,0"
             style="fill:#55477e;fill-opacity:1;fill-rule:nonzero;stroke:none"
             id="path178"
             inkscape:connector-curvature="0" /></g><g
           id="g180"
           transform="translate(89.8351,144.6085)"><path
             d="m 0,0 c 0,0.948 -0.693,1.737 -1.674,1.737 -0.98,0 -1.66,-0.773 -1.66,-1.721 V 0 c 0,-0.947 0.696,-1.738 1.677,-1.738 0.977,0 1.657,0.774 1.657,1.723 z m -1.674,-2.86 c -1.706,0 -2.93,1.272 -2.93,2.845 V 0 c 0,1.571 1.24,2.859 2.947,2.859 1.705,0 2.929,-1.272 2.929,-2.843 L 1.272,0 c 0,-1.572 -1.24,-2.86 -2.946,-2.86"
             style="fill:#55477e;fill-opacity:1;fill-rule:nonzero;stroke:none"
             id="path182"
             inkscape:connector-curvature="0" /></g><g
           id="g184"
           transform="translate(95.8116,145.4854)"><path
             d="m 0,0 c 0,0.521 -0.362,0.79 -0.955,0.79 h -1.208 v -1.588 h 1.23 C -0.34,-0.798 0,-0.482 0,-0.016 Z m -0.022,-3.642 -1.186,1.77 h -0.955 v -1.77 H -3.38 v 5.531 h 2.527 C 0.45,1.889 1.232,1.2 1.232,0.062 V 0.048 c 0,-0.894 -0.481,-1.454 -1.185,-1.715 l 1.351,-1.975 z"
             style="fill:#55477e;fill-opacity:1;fill-rule:nonzero;stroke:none"
             id="path186"
             inkscape:connector-curvature="0" /></g><g
           id="g188"
           transform="translate(100.9757,141.7481)"><path
             d="M 0,0 C -1.629,0 -2.836,1.257 -2.836,2.846 V 2.86 c 0,1.572 1.185,2.86 2.884,2.86 1.042,0 1.665,-0.347 2.18,-0.853 L 1.452,3.975 C 1.025,4.361 0.593,4.598 0.039,4.598 -0.893,4.598 -1.564,3.824 -1.564,2.876 V 2.86 c 0,-0.947 0.654,-1.738 1.603,-1.738 0.632,0 1.02,0.253 1.452,0.648 L 2.267,0.989 C 1.698,0.38 1.065,0 0,0"
             style="fill:#55477e;fill-opacity:1;fill-rule:nonzero;stroke:none"
             id="path190"
             inkscape:connector-curvature="0" /></g><path
           d="m 104.51,147.374 h 1.217 v -5.53 h -1.217 z"
           style="fill:#55477e;fill-opacity:1;fill-rule:nonzero;stroke:none"
           id="path192"
           inkscape:connector-curvature="0" /><g
           id="g194"
           transform="translate(111.712,144.6085)"><path
             d="m 0,0 c 0,0.948 -0.694,1.737 -1.674,1.737 -0.979,0 -1.659,-0.773 -1.659,-1.721 V 0 c 0,-0.947 0.696,-1.738 1.674,-1.738 0.979,0 1.659,0.774 1.659,1.723 z m -1.674,-2.86 c -1.707,0 -2.931,1.272 -2.931,2.845 V 0 c 0,1.571 1.241,2.859 2.946,2.859 1.707,0 2.931,-1.272 2.931,-2.843 L 1.272,0 c 0,-1.572 -1.241,-2.86 -2.946,-2.86"
             style="fill:#55477e;fill-opacity:1;fill-rule:nonzero;stroke:none"
             id="path196"
             inkscape:connector-curvature="0" /></g><g
           id="g198"
           transform="translate(120.7442,144.6085)"><path
             d="m 0,0 c 0,0.979 -0.671,1.667 -1.668,1.667 h -0.938 v -3.333 h 0.938 c 0.997,0 1.668,0.671 1.668,1.651 z m -1.668,-2.765 h -2.156 v 5.531 h 2.156 c 1.738,0 2.939,-1.195 2.939,-2.75 L 1.271,0 c 0,-1.556 -1.201,-2.765 -2.939,-2.765"
             style="fill:#55477e;fill-opacity:1;fill-rule:nonzero;stroke:none"
             id="path200"
             inkscape:connector-curvature="0" /></g><g
           id="g202"
           transform="translate(123.339,141.8438)"><path
             d="M 0,0 V 5.53 H 4.171 V 4.447 H 1.208 V 3.325 H 3.813 V 2.244 H 1.208 V 1.083 H 4.21 V 0 Z"
             style="fill:#55477e;fill-opacity:1;fill-rule:nonzero;stroke:none"
             id="path204"
             inkscape:connector-curvature="0" /></g><g
           id="g206"
           transform="translate(135.3087,144.6085)"><path
             d="m 0,0 c 0,0.979 -0.672,1.667 -1.666,1.667 h -0.94 v -3.333 h 0.94 c 0.994,0 1.666,0.671 1.666,1.651 z m -1.666,-2.765 h -2.156 v 5.531 h 2.156 c 1.737,0 2.937,-1.195 2.937,-2.75 V 0 c 0,-1.556 -1.2,-2.765 -2.937,-2.765"
             style="fill:#55477e;fill-opacity:1;fill-rule:nonzero;stroke:none"
             id="path208"
             inkscape:connector-curvature="0" /></g><g
           id="g210"
           transform="translate(139.9503,145.9513)"><path
             d="m 0,0 -0.735,-1.793 h 1.468 z m 1.674,-4.107 -0.505,1.24 h -2.338 l -0.506,-1.24 h -1.24 l 2.371,5.569 h 1.12 l 2.37,-5.569 z"
             style="fill:#55477e;fill-opacity:1;fill-rule:nonzero;stroke:none"
             id="path212"
             inkscape:connector-curvature="0" /></g><g
           id="g214"
           transform="translate(145.7833,146.252)"><path
             d="M 0,0 V -4.408 H -1.216 V 0 h -1.681 v 1.122 h 4.58 L 1.683,0 Z"
             style="fill:#55477e;fill-opacity:1;fill-rule:nonzero;stroke:none"
             id="path216"
             inkscape:connector-curvature="0" /></g><g
           id="g218"
           transform="translate(152.7657,144.6085)"><path
             d="m 0,0 c 0,0.948 -0.697,1.737 -1.676,1.737 -0.978,0 -1.658,-0.773 -1.658,-1.721 V 0 c 0,-0.947 0.693,-1.738 1.674,-1.738 0.98,0 1.66,0.774 1.66,1.723 z m -1.676,-2.86 c -1.706,0 -2.93,1.272 -2.93,2.845 V 0 c 0,1.571 1.241,2.859 2.946,2.859 1.708,0 2.931,-1.272 2.931,-2.843 L 1.271,0 c 0,-1.572 -1.241,-2.86 -2.947,-2.86"
             style="fill:#55477e;fill-opacity:1;fill-rule:nonzero;stroke:none"
             id="path220"
             inkscape:connector-curvature="0" /></g><g
           id="g222"
           transform="translate(157.2872,141.7657)"><path
             d="m 0,0 c -0.837,0 -1.683,0.292 -2.346,0.885 l 0.72,0.86 c 0.497,-0.411 1.02,-0.671 1.651,-0.671 0.497,0 0.797,0.197 0.797,0.521 V 1.61 c 0,0.309 -0.19,0.466 -1.114,0.703 -1.112,0.285 -1.831,0.593 -1.831,1.692 V 4.02 c 0,1.002 0.806,1.667 1.935,1.667 0.805,0 1.491,-0.253 2.052,-0.704 L 1.232,4.067 C 0.744,4.406 0.261,4.612 -0.205,4.612 -0.672,4.612 -0.916,4.399 -0.916,4.131 V 4.114 c 0,-0.362 0.237,-0.482 1.193,-0.726 C 1.398,3.096 2.03,2.693 2.03,1.729 V 1.713 C 2.03,0.614 1.193,0 0,0"
             style="fill:#55477e;fill-opacity:1;fill-rule:nonzero;stroke:none"
             id="path224"
             inkscape:connector-curvature="0" /></g></g></g></g></svg>